<?xml version="1.0" standalone="no"?><!DOCTYPE svg PUBLIC "-//W3C//DTD SVG 1.1//EN" "http://www.w3.org/Graphics/SVG/1.1/DTD/svg11.dtd"><svg t="1586793890827" class="icon" viewBox="0 0 1024 1024" version="1.1" xmlns="http://www.w3.org/2000/svg" p-id="7359" data-spm-anchor-id="a313x.7781069.0.i15" xmlns:xlink="http://www.w3.org/1999/xlink" width="200" height="200"><defs><style type="text/css"></style></defs><path d="M960 918.336 960 960 64 960l0-41.664c0-153.984 344.064-121.024 344.064-270.912 0-13.632 0.448-27.008 0.256-42.944C391.872 586.496 354.368 540.224 339.456 477.056c-15.232-7.04-27.84-22.208-35.904-43.392C292.352 403.84 291.52 362.688 313.344 336 313.28 335.488 313.216 335.168 313.152 334.656 309.12 297.28 298.24 197.952 358.08 132.864 392.576 95.36 444.224 65.792 511.488 64c67.264 1.792 118.912 31.36 153.408 68.864 59.84 65.088 48.96 164.416 44.864 201.792-0.064 0.512-0.128 0.832-0.256 1.344 21.824 26.688 20.992 67.84 9.792 97.664-8 21.184-20.8 36.352-36.032 43.392-14.912 63.104-52.672 109.44-69.12 127.424C613.952 620.352 613.76 635.392 613.76 649.024 613.76 796.096 960 763.136 960 918.336z" p-id="7360" data-spm-anchor-id="a313x.7781069.0.i16" class="selected" fill="#e6e6e6"></path></svg>