<?xml version="1.0" standalone="no"?><!DOCTYPE svg PUBLIC "-//W3C//DTD SVG 1.1//EN" "http://www.w3.org/Graphics/SVG/1.1/DTD/svg11.dtd"><svg t="1586793754439" class="icon" viewBox="0 0 1024 1024" version="1.1" xmlns="http://www.w3.org/2000/svg" p-id="2236" id="mx_n_1586793754441" xmlns:xlink="http://www.w3.org/1999/xlink" width="200" height="200"><defs><style type="text/css"></style></defs><path d="M449.02369 838.555427a58.325383 51.369971 90 1 0 102.739942 0 58.325383 51.369971 90 1 0-102.739942 0Z" fill="#ffffff" p-id="2237" data-spm-anchor-id="a313x.7781069.0.i6" class="selected"></path><path d="M700.54212 959.013917H328.675718c-51.777247 0-93.898577-42.12133-93.898577-93.898577v-251.221672h81.556481v104.193037H712.890356v-104.193037h81.556481v251.221672c0 51.777247-42.128493 93.898577-93.904717 93.898577zM263.209704 642.326231v222.789109c0 36.096103 29.369911 65.466014 65.466014 65.466014h371.866402c36.103266 0 65.473177-29.369911 65.473178-65.466014V642.326231h-24.691356v104.193037H287.901059v-104.193037h-24.691355z" fill="#212121" p-id="2238"></path><path d="M514.612501 905.889999c-37.130665 0-67.339688-30.202882-67.339688-67.333548s30.210046-67.339688 67.339688-67.339688 67.339688 30.210046 67.339687 67.339688c0 37.130665-30.210046 67.333548-67.339687 67.333548z m0-106.240673c-21.456684 0-38.907125 17.451464-38.907125 38.907125 0 21.449521 17.451464 38.900985 38.907125 38.900985 21.456684 0 38.907125-17.451464 38.907125-38.900985 0-21.455661-17.451464-38.907125-38.907125-38.907125zM794.446837 302.467823H712.890356v-87.185688H316.333622v87.185688h-81.556481V174.506453c0-51.777247 42.12133-93.898577 93.898577-93.898577h371.866402c51.777247 0 93.90574 42.12133 93.90574 93.898577v127.96137z m-53.123918-28.432563h24.691355V174.507476c0-36.096103-29.369911-65.466014-65.473177-65.466014H328.675718c-36.096103 0-65.466014 29.369911-65.466014 65.466014v99.527784h24.691355v-87.185688h453.422883v87.185688z" fill="#212121" p-id="2239"></path><path d="M355.137393 579.641563h57.846476l-93.712335-248.744247h-67.102281l-93.712335 248.744247h57.846476l20.825305-56.691163h97.182366l20.826328 56.691163z m-106.440218-92.555999l37.023219-105.281835 35.865859 105.281835h-72.889078zM546.032094 330.899362H438.435541v248.744248h54.376444v-86.770226h53.219086c61.697177 1.553379 91.778286-25.453718 90.242304-80.987523 0.759293-53.980425-29.321816-80.986499-90.241281-80.986499z m-10.41214 126.106116h-42.806945v-91.399663h42.806945c30.840402-0.759293 45.879933 14.661931 45.12064 46.278 1.537006 30.858822-13.503549 45.899376-45.12064 45.121663zM868.819708 411.883815c0.75827-53.978379-29.321816-80.986499-90.242303-80.986499H670.980851v248.744247h54.377468v-86.770226h53.219086c61.698201 1.553379 91.780333-25.452695 90.242303-80.987522z m-100.653421 45.121663h-42.806945v-91.399663h42.806945c30.839379-0.759293 45.879933 14.661931 45.119617 46.278 1.538029 30.858822-13.502525 45.899376-45.119617 45.121663z" fill="" p-id="2240"></path></svg>