<?xml version="1.0" standalone="no"?><!DOCTYPE svg PUBLIC "-//W3C//DTD SVG 1.1//EN" "http://www.w3.org/Graphics/SVG/1.1/DTD/svg11.dtd"><svg t="1586793525918" class="icon" viewBox="0 0 1024 1024" version="1.1" xmlns="http://www.w3.org/2000/svg" p-id="3939" xmlns:xlink="http://www.w3.org/1999/xlink" width="200" height="200"><defs><style type="text/css"></style></defs><path d="M858.6 278.3c-0.8-3.8-2.2-7.6-4.5-11-25.9-38.4-68.2-61.3-113-61.3H277.9c-44.7 0-87 23-113 61.5-3.6 5.3-5.2 11.4-5.1 17.4-9.5 21.6-10.8 44-10.8 60.1v340c0 36.3 12.6 69.9 35.5 94.4 23.8 25.5 56.9 39.6 93.4 39.6h463.2c75.1 0 133.9-58.9 133.9-134V345.1c0-24.4-5.6-47.2-16.4-66.8zM741.1 266c17 0 33.5 6.1 46.9 17L646.4 425.4l-83.6 83.8c-3.7 3.7-7.7 6.9-11.8 9.7-29.5 19-69.4 15.6-95.3-10.4l-58-58.2-165.5-168c13.2-10.4 29.2-16.2 45.8-16.2h463.1zM815 685c0 42.2-31.8 74-73.9 74H277.9c-40.6 0-68.9-30.4-68.9-74V346.1l146 146.4 58.1 58.9 0.2 0.2c25.7 25.7 59.8 39.9 96 39.9 28.5 0 55.8-8.8 78.6-25.2 6.3-4.4 12.4-9.5 18-15.2l83.4-83.8 125.7-126c0 1.2 0.1 2.5 0.1 3.7v340z" p-id="3940" fill="#707070"></path></svg>