<?xml version="1.0" standalone="no"?>
<!DOCTYPE svg PUBLIC "-//W3C//DTD SVG 20010904//EN"
 "http://www.w3.org/TR/2001/REC-SVG-20010904/DTD/svg10.dtd">
<svg version="1.0" xmlns="http://www.w3.org/2000/svg"
 width="1200.000000pt" height="1200.000000pt" viewBox="0 0 1200.000000 1200.000000"
 preserveAspectRatio="xMidYMid meet">
<metadata>
Created by potrace 1.14, written by Peter Selinger 2001-2017
</metadata>
<g transform="translate(0.000000,1200.000000) scale(0.100000,-0.100000)"
fill="#000000" stroke="none">
<path d="M3190 10090 l0 -130 -265 0 -265 0 0 -140 0 -140 265 0 265 0 0 130
c0 150 -2 147 100 146 36 -1 1297 -2 2803 -4 l2737 -2 0 -135 0 -135 264 0
c146 0 266 3 268 8 2 4 2 67 0 140 l-4 132 -264 0 -264 0 0 130 0 130 -2820 0
-2820 0 0 -130z"/>
<path d="M2380 9560 l0 -130 -118 0 c-78 0 -122 -4 -130 -12 -9 -9 -12 -83
-12 -270 l0 -258 -121 0 c-66 0 -129 -5 -140 -10 -18 -10 -19 -28 -19 -675 l0
-665 140 0 140 0 0 665 0 665 129 0 c108 0 130 3 135 16 3 9 6 130 6 270 l0
254 135 0 136 0 -3 138 -3 137 -137 3 -138 3 0 -131z"/>
<path d="M9364 9677 c-2 -7 -3 -69 -2 -138 l3 -124 138 -3 137 -3 0 -269 0
-270 130 0 130 0 0 -665 0 -665 -130 0 -130 0 0 -275 0 -275 -140 0 -140 0 0
-126 c0 -95 3 -129 14 -140 19 -18 236 -20 254 -2 8 8 12 54 12 140 l0 128
119 0 c86 0 122 4 130 13 7 9 12 102 13 273 l3 259 138 3 137 3 0 668 c0 601
-2 669 -16 675 -9 3 -72 6 -140 6 l-124 0 0 264 c0 231 -2 265 -16 270 -9 3
-67 6 -130 6 l-114 0 0 130 0 130 -135 0 c-102 0 -137 -3 -141 -13z"/>
<path d="M3470 8205 l0 -665 130 0 130 0 0 258 c0 187 3 261 12 270 8 8 51 12
129 12 97 0 118 -3 123 -16 3 -9 6 -120 6 -247 0 -128 3 -242 6 -254 6 -22 10
-23 135 -23 l129 0 0 665 0 665 -135 0 -135 0 0 -265 0 -265 -135 0 -135 0 0
265 0 265 -130 0 -130 0 0 -665z"/>
<path d="M4540 8205 l0 -665 400 0 400 0 0 130 0 130 -267 2 -268 3 -3 124
c-2 82 1 128 9 137 9 11 43 14 141 14 l129 0 -3 128 -3 127 -137 3 -138 3 0
134 0 135 270 0 270 0 0 130 0 130 -400 0 -400 0 0 -665z"/>
<path d="M5610 8205 l0 -665 400 0 400 0 0 130 0 130 -256 0 c-208 0 -258 3
-270 14 -12 12 -14 97 -14 535 l0 521 -130 0 -130 0 0 -665z"/>
<path d="M6687 8863 c-9 -8 -9 -1286 -1 -1307 5 -14 50 -16 400 -16 l394 0 0
130 0 130 -259 0 c-227 0 -260 2 -265 16 -3 9 -6 249 -6 535 l0 519 -128 0
c-71 0 -132 -3 -135 -7z"/>
<path d="M7756 8861 c-3 -5 -5 -303 -3 -662 l2 -654 398 -3 397 -2 0 665 0
665 -394 0 c-217 0 -397 -4 -400 -9z m532 -648 l2 -393 -72 -2 c-145 -4 -183
-3 -190 7 -9 12 -11 710 -2 754 l7 32 126 -3 126 -3 3 -392z"/>
<path d="M2126 7524 c-3 -9 -6 -127 -6 -263 0 -179 3 -250 12 -259 8 -8 52
-12 130 -12 l118 0 0 -128 c0 -86 4 -132 12 -140 8 -8 54 -12 140 -12 l127 0
3 -122 3 -123 263 -3 262 -2 0 135 0 135 -265 0 -265 0 0 130 0 130 -140 0
-140 0 0 275 0 275 -124 0 c-104 0 -125 -3 -130 -16z"/>
<path d="M8830 6595 l0 -135 -1067 -2 -1068 -3 -3 -127 -3 -128 -117 0 c-176
0 -162 11 -162 -141 l0 -129 -130 0 -130 0 0 -135 0 -135 -129 0 c-108 0 -130
-3 -135 -16 -3 -9 -6 -67 -6 -130 l0 -113 -132 -3 -133 -3 -3 -137 -3 -138
-134 0 -135 0 0 660 c0 477 -3 664 -11 673 -9 9 -251 11 -1059 10 -576 -2
-1055 -6 -1064 -9 -13 -5 -16 -25 -16 -119 0 -62 3 -120 6 -129 6 -14 98 -16
940 -16 l934 0 0 -792 c0 -454 4 -799 9 -807 9 -13 72 -16 253 -11 4 0 9 62
10 138 l3 137 137 3 137 3 3 127 3 127 133 3 132 3 0 129 0 129 128 3 127 3 3
127 3 127 132 3 132 3 3 138 c1 79 7 138 12 138 6 1 15 3 20 4 6 1 62 3 125 4
l115 1 0 130 0 130 1070 0 1070 0 0 135 0 135 265 0 265 0 0 135 0 135 -265 0
-265 0 0 -135z"/>
<path d="M958 4028 l-3 -133 -130 -5 -130 -5 -3 -937 -2 -938 135 0 135 0 0
-135 0 -135 945 0 945 0 0 135 0 135 105 0 c68 0 105 -4 105 -11 0 -6 10 -9
23 -7 l22 3 3 948 2 947 -130 0 -130 0 0 119 c0 66 -3 126 -6 135 -6 14 -98
16 -945 16 l-938 0 -3 -132z m800 -540 l-3 -133 -127 -3 -127 -3 -3 -132 -3
-132 -127 -3 -128 -3 -1 226 c-1 124 -1 236 -1 250 0 72 -27 65 262 65 l261 0
-3 -132z m812 -138 l0 -270 -130 0 -130 0 0 130 c0 152 15 139 -155 143 l-110
2 -3 133 -3 132 266 0 265 0 0 -270z"/>
<path d="M3690 4031 c0 -108 3 -130 16 -135 20 -8 1848 -8 1868 0 13 5 16 27
16 135 l0 129 -950 0 -950 0 0 -129z"/>
<path d="M6430 4030 l0 -130 945 2 945 3 5 95 c2 52 2 110 -2 128 l-5 32 -944
0 -944 0 0 -130z"/>
<path d="M9186 4143 c-4 -9 -6 -71 -5 -138 l1 -120 -136 -3 -136 -3 0 -934 c0
-884 1 -935 18 -936 9 0 67 0 129 1 l112 1 3 -133 3 -133 942 -3 942 -2 3 127
c3 124 4 128 25 128 11 0 25 3 29 8 4 4 52 7 106 7 87 0 98 2 98 18 1 64 1
1830 1 1844 -1 15 -16 18 -128 20 l-128 3 -2 120 c-1 66 -2 126 -3 133 0 9
-194 12 -934 12 -872 0 -934 -1 -940 -17z m1862 -290 c16 -35 18 -1793 2
-1793 -5 0 -10 -6 -10 -12 0 -37 -32 -38 -931 -38 -575 0 -880 3 -884 10 -3 5
-15 10 -26 10 -19 0 -19 16 -19 925 l0 925 928 0 927 0 13 -27z"/>
<path d="M9570 3620 l-125 -5 0 -130 c0 -98 3 -130 13 -129 6 1 68 2 136 3
l123 1 -1 132 c-1 79 -5 132 -11 133 -5 0 -66 -2 -135 -5z"/>
<path d="M10383 3623 l-133 -4 0 -129 0 -130 135 0 135 0 0 135 c0 74 -1 134
-2 133 -2 -1 -63 -4 -135 -5z"/>
<path d="M3437 3883 c-4 -3 -7 -428 -7 -944 l0 -938 21 -6 c12 -4 26 -2 32 4
7 7 52 11 114 11 l103 0 0 934 c0 845 -1 934 -16 940 -21 8 -239 8 -247 -1z"/>
<path d="M6293 3883 l-123 -4 0 -934 c0 -741 3 -935 13 -936 6 -1 58 0 115 1
69 1 107 -2 117 -10 12 -10 15 -40 15 -136 l0 -124 948 2 947 3 1 115 c0 63
-2 123 -4 133 -4 16 -57 17 -936 17 -712 0 -935 -3 -944 -12 -9 -9 -12 200
-12 940 0 524 -3 951 -7 950 -5 -1 -63 -4 -130 -5z"/>
<path d="M5580 2945 l0 -935 135 0 135 0 0 935 0 935 -135 0 -135 0 0 -935z"/>
<path d="M8320 2946 l0 -934 128 -4 c70 -3 130 -3 135 -1 4 2 7 425 7 939 l0
934 -135 0 -135 0 0 -934z"/>
<path d="M4252 3608 c-8 -8 -12 -52 -12 -130 l0 -118 114 0 c63 0 121 -3 130
-6 14 -5 16 10 16 130 l0 136 -118 0 c-78 0 -122 -4 -130 -12z"/>
<path d="M5058 3610 c-16 -10 -18 -27 -18 -130 l0 -120 135 0 136 0 -3 128 -3
127 -115 3 c-68 1 -122 -2 -132 -8z"/>
<path d="M6823 3353 l-113 -4 0 -129 0 -130 135 0 135 0 0 123 c0 120 -7 150
-34 145 -6 -1 -62 -4 -123 -5z"/>
<path d="M7520 3220 l0 -130 130 0 130 0 0 130 0 130 -130 0 -130 0 0 -130z"/>
<path d="M3702 1998 c-8 -8 -12 -53 -12 -135 l0 -123 950 0 950 0 0 123 c0 82
-4 127 -12 135 -17 17 -1859 17 -1876 0z"/>
</g>
</svg>
